<?xml version="1.0" encoding="UTF-8"?><svg id="uuid-b116791d-1668-4fad-a795-2102829baa9d" xmlns="http://www.w3.org/2000/svg" viewBox="0 0 905.1 314.8"><defs><style>.uuid-b4276aa1-5c03-41b8-a6d6-76b839ed0e9f{fill:#fff;}</style></defs><g id="uuid-85d30088-2204-4ee9-8bf7-d8cfbaf03f0a"><path class="uuid-b4276aa1-5c03-41b8-a6d6-76b839ed0e9f" d="M114.7,241.2l2.4,56.3-29.4,6.7-3.9-123.7,32.3-7.7-3.4,9.6,1.2,35.5,11.2-2.7s16-11.5,16.2-24.9l-19.6,4.4-.3-21.8,64.7-14.8v23.1l-20,4.6c-1.7.4-1.8,5.8-.3,5.7l10.3-.7c6.8,10.4,12.1,20.3,17.5,32.1l-22.4,6.3-9.5-17.2c-6.7,15.1-16.8,25.1-31.4,32.1-1.9-5-3-9.5-4.2-14.6l-.7,9-10.5,2.6-.2.1Z"/><path class="uuid-b4276aa1-5c03-41b8-a6d6-76b839ed0e9f" d="M866.8,110.1l-76.8,17.1-.5-22.2,39.3-7.8-.3-5.2-45.4,10-.3-20.9,119.6-25.9.6,20.9-39.6,8.3c-.9.2-2.7,1.2-3.4,1.8s.5,4.2,1.9,3.9l34.9-7.3,1.6,41.2-30.9,6.7-.8-20.6h.1Z"/><path class="uuid-b4276aa1-5c03-41b8-a6d6-76b839ed0e9f" d="M0,289.1c6.5-4.2,11.5-7.2,17-11.6,19.1-15,29.6-39,28-62.6L1.8,224.7l-.6-24,74.1-16.3c2.8,61.1-8.7,100.8-64.1,130.4l-11.2-25.7h0Z"/><path class="uuid-b4276aa1-5c03-41b8-a6d6-76b839ed0e9f" d="M352.5,241.8c-18.7,5.3-36.1,9.9-54.6,13.7-7.9,1.6-17.9.1-23.2-5.9-8.2-9.3-6.6-23.8,1.5-32.6s14.7-11.6,24-13.8l42.7-10.2c12-2.9,32.3-6.5,37.8,9,7,19.6-8.9,34.4-28.3,39.9l.1-.1ZM304.9,232.9c15.4-3.3,29.6-6.7,44.6-11.1,2.3-.7,4-5.6,3.4-7.4s-4.3-3.4-6.9-2.7l-43.6,10.8c-2.1.5-4.1,4.8-3.9,6.7s4,4.2,6.3,3.7h.1Z"/><path class="uuid-b4276aa1-5c03-41b8-a6d6-76b839ed0e9f" d="M788.8,24.7l30.8-6.8.2,7.1,41.1-8.3,1.1-6.4,43.1-10.3c-4.1,5.2-7.2,8.6-11.4,12.9l.6,38.7-104.9,22-.7-49,.1.1ZM820.4,47.1l41.9-8.5v-6.9c.1,0-42,8.7-42,8.7-.4,1.9-.4,4.1,0,6.6l.1.1Z"/><path class="uuid-b4276aa1-5c03-41b8-a6d6-76b839ed0e9f" d="M474.8,165.3l-77.6,18.4-.5-46,42.3-9.7-.3-6.6-42.4,9.8-.7-20.1,68.7-15.1.4,45.6-38.7,9.1c-.5,2.1-.2,5.3.5,7l47.1-11.1,1.1,18.9.1-.2Z"/><path class="uuid-b4276aa1-5c03-41b8-a6d6-76b839ed0e9f" d="M160.6,288c-8.6,1.6-17.9.3-23.3-5.6-8.6-9.2-7.7-23.4,0-32.8,6.1-7.4,14.6-10.9,23.8-13l33.9-7.5c6.7-1.5,13.3-2.6,20.2-3,11.2-.7,20.7,7.4,21.2,19.1s-9.6,25.6-23,29.8c-17.3,5.5-34.3,9.6-52.9,13h.1ZM165.6,266.3l38-9.4c2.8-.7,4.7-4.7,3.9-7.1s-4.4-3.4-6.6-2.9l-37.5,8.9c-2.2.5-4.5,4.5-4.2,6.4s4.2,4.6,6.5,4l-.1.1Z"/><path class="uuid-b4276aa1-5c03-41b8-a6d6-76b839ed0e9f" d="M738.2,108.1l-25.2,5.3-11.3-19.3c-8.5,15.5-20.7,26.1-36.8,33.8l-10.8-17.7c14.5-8.8,24.4-20.8,25.9-38.5l-22.5,5-.3-22,75.6-17.3.4,21.4-23.8,5.8-1.1,10.8,10.8-1.2c7.1,11.1,13.2,21,19,33.9h.1Z"/><path class="uuid-b4276aa1-5c03-41b8-a6d6-76b839ed0e9f" d="M264,187.3c17.1-4.8,44.6-15,46-34.8l-43.3,10.1-.3-22.6,72.3-16.3-1.3,23.4c-1.9,35.7-39.4,54.8-71.1,63.4l-2.4-23.3.1.1Z"/><polygon class="uuid-b4276aa1-5c03-41b8-a6d6-76b839ed0e9f" points="484.4 214 483.7 191.6 400.4 212 399.8 189.1 511.7 162.9 513.6 207.4 484.4 214"/><polygon class="uuid-b4276aa1-5c03-41b8-a6d6-76b839ed0e9f" points="778.1 146.5 669.9 170.4 669 129.7 698 123.3 699.1 140.7 777.6 123.3 778.1 146.5"/><polygon class="uuid-b4276aa1-5c03-41b8-a6d6-76b839ed0e9f" points="744.9 80.3 728 84.2 726.7 64.3 744.4 58.9 744.5 33.7 780.4 25.8 774.3 38.5 775.2 114.3 745.5 120.5 744.9 80.3"/><path class="uuid-b4276aa1-5c03-41b8-a6d6-76b839ed0e9f" d="M576.5,148.7c-11.4,4.4-23.1,7-34.6,8-10,.9-17.2-5.8-18.9-15.1-2.5-13.5,5-27.1,18.7-31.8,11-3.8,22.7-6.4,34.4-9,9.1-2,17.4,3,19.5,11.8,3.5,14.8-4.1,30.2-19.1,36v.1ZM574.4,126.6c.6-1.3-.4-5.7-2.1-6.1-11.3-2.2-29.1,4.8-24.9,13s4.2,2.7,5.7,2.4c9.3-1.9,18.4-2.6,21.3-9.3Z"/><polygon class="uuid-b4276aa1-5c03-41b8-a6d6-76b839ed0e9f" points="532.5 201.6 531.6 163.8 559.7 157.9 560.3 171.1 633.7 154 633.7 177.8 556.3 195.8 532.5 201.6"/><polygon class="uuid-b4276aa1-5c03-41b8-a6d6-76b839ed0e9f" points="643.2 107.3 630.3 110.4 631.4 144.1 603.3 150.2 601.8 65.4 635.7 58.5 629.9 67.6 630.1 85.2 642.5 82.7 643.2 107.3"/><path class="uuid-b4276aa1-5c03-41b8-a6d6-76b839ed0e9f" d="M468.6,127.7l12.5-3.5c1.4-.4,1.7-4.9.8-6.3l-13,2.6-.3-17,14.1-4.1v-5.3c.1-1.1,2.8-2,4-2.3l28.4-6.8-4.1,9.4.3,62.8-28.6,6.4-.6-21.8-13,2.5-.4-16.6h-.1Z"/><polygon class="uuid-b4276aa1-5c03-41b8-a6d6-76b839ed0e9f" points="242.1 191.9 226.3 195.4 227 218.1 197.5 224.2 194.8 156.1 235.1 147.3 225.9 160.4 226.1 172.3 240.9 168.5 242.1 191.9"/><polygon class="uuid-b4276aa1-5c03-41b8-a6d6-76b839ed0e9f" points="390.8 156.8 376.1 159.9 376.6 182.1 347.9 188.4 347.4 121.5 388.2 112.4 376.1 127.8 376.1 137.2 390.1 134.3 390.8 156.8"/><polygon class="uuid-b4276aa1-5c03-41b8-a6d6-76b839ed0e9f" points="521.4 110 521.3 88.4 550.3 81.6 551.8 74.8 578.7 69.1 578 75.1 597.6 71.9 597.7 91.9 521.4 110"/></g></svg>