<?xml version="1.0" encoding="UTF-8"?><svg id="uuid-7922d818-4bb9-44c5-938f-9b4955b97b63" xmlns="http://www.w3.org/2000/svg" viewBox="0 0 446 212.6"><defs><style>.uuid-903bbd2a-ad59-46f4-bcb3-611ae1b5c4f0{fill:#fff;}</style></defs><g id="uuid-7bfd2176-7b3f-40d5-a1bd-d50d77429380"><path class="uuid-903bbd2a-ad59-46f4-bcb3-611ae1b5c4f0" d="M279.2,122.6l-2.5-47.1c-.9-17.3,6.7-32.8,22.2-40.9,16.6-8.6,47.9-14.6,53.4,9.3,1.2,5.4,1.4,10.7,1.9,16.7l13.1-3.4-1.3-39.7,29.4-6.9,4.1,113.5-29.6,7.4-1.7-50.9-13.2,3.3.4,16.4c.7,29.6-29.2,45.4-54.5,43.5-11.5-.8-21.1-9-21.7-21.3v.1ZM315.5,118.8c6.4-.5,12.1-5.4,11.9-12.2l-1.5-46.2c0-2.1-1-5.2-2.2-6.3-1.3-1.2-4.8-1.8-6.8-1.6-6.9.8-11.8,5.9-11.6,13l1.4,45.9c.1,4.6,3.4,7.8,8.6,7.5l.2-.1Z"/><path class="uuid-903bbd2a-ad59-46f4-bcb3-611ae1b5c4f0" d="M211.2,169l-62.5,15.2-.4-31.3,85.4-20.9c1.3-.3,1-4.6-.7-4.2l-86.1,21.1-.5-13.9,38.7-9.5c1.2-.3,3.3-1,3.8-1.8s-.1-3.2-.6-4.1l-49.3,12.3c-.5-6.5-.6-11.8-.3-17.8l131.3-31.7.4,17.2-49.2,12.1c-1.3.3-1.5,5.4-.2,5.1l41.8-10.1.7,31.6-82.2,20c-1.8.4-1.3,4.8-.2,4.5l85.4-20.7.2,13.2-55.3,13.7h-.2Z"/><polygon class="uuid-903bbd2a-ad59-46f4-bcb3-611ae1b5c4f0" points="89.5 162.9 90.3 186.1 3.5 212.6 0 101.3 78.3 82.5 78.8 106.6 31.1 118.4 33.3 176.5 89.5 162.9"/><path class="uuid-903bbd2a-ad59-46f4-bcb3-611ae1b5c4f0" d="M70.2,149.9l-5.1-23.5,26.4-7.3c2.1-.6,3.8-3.4,3.8-5.6l-1-35.2,31-7.3,4.4,114.9-31.1,7.7-2.1-50.4-26.3,6.7h0Z"/><path class="uuid-903bbd2a-ad59-46f4-bcb3-611ae1b5c4f0" d="M175.6,57.3l1.3,7.5,53.2-13c1.2-1.9,1.5-4.5,1.5-7.8l29.3-7.2.8,42.8-115.6,27.9-.2-43.1,29.6-7,.1-.1ZM177.3,84.8l52.8-13c1.2-.3,1-5.1-.2-4.8l-53,13c-1.3.3-1.2,5.1.4,4.7v.1Z"/><polygon class="uuid-903bbd2a-ad59-46f4-bcb3-611ae1b5c4f0" points="443.1 78.4 417.8 84.5 413.9 6.8 444.6 0 443.1 78.4"/><polygon class="uuid-903bbd2a-ad59-46f4-bcb3-611ae1b5c4f0" points="446 112.9 417.4 119.7 416.5 94.3 445.5 87.2 446 112.9"/></g></svg>