<?xml version="1.0" encoding="UTF-8"?><svg id="uuid-e6c40c0c-735d-400e-ad18-acf31169de2c" xmlns="http://www.w3.org/2000/svg" viewBox="0 0 540.9 230.95"><defs><style>.uuid-5a108a2e-9a6a-4dd3-8eb3-fc2371f4e73f{fill:#fff;}</style></defs><g id="uuid-fe5e2d1e-8eda-4074-bda3-b5bda6fc7818"><path class="uuid-5a108a2e-9a6a-4dd3-8eb3-fc2371f4e73f" d="M25.5,230.9c-18.2-.7-24.9-15.3-25.1-30.7L0,152.2c-.2-32.6,33.8-49.7,62.7-48.5,12.5.5,22.3,9.6,23,22.8,1,18.9,1.2,37.5,1,56.6-.3,31.1-33.9,48.9-61.2,47.8h0ZM42.4,204.2c7.1-.8,13.3-6.2,13.2-13.8l-.6-53.1c0-5.5-4.9-8.1-10.1-7.2s-13.2,5-13.1,12.1l1,53.9c0,5.2,4.1,8.7,9.6,8.1Z"/><polygon class="uuid-5a108a2e-9a6a-4dd3-8eb3-fc2371f4e73f" points="505.6 97.7 434.3 127.2 433.3 103.2 444.2 98.9 443.4 61.6 466.3 55.8 468.2 91.3 505.3 77.3 503.9 6.3 528.6 0 529.6 33.6 540.9 31.3 540.9 52 530.1 55.5 531.2 106 506.5 112.6 505.6 97.7"/><polygon class="uuid-5a108a2e-9a6a-4dd3-8eb3-fc2371f4e73f" points="356.6 108 354.7 33.5 381.9 26.9 382.8 53.5 391.9 52.1 391.4 25.2 418.8 18.6 419.7 91.8 393 98.7 392 74.2 383 76.2 383.1 101.9 356.6 108"/><polygon class="uuid-5a108a2e-9a6a-4dd3-8eb3-fc2371f4e73f" points="130.9 210.2 99.6 217.8 96.5 94.4 128.4 86.2 130.9 210.2"/><polygon class="uuid-5a108a2e-9a6a-4dd3-8eb3-fc2371f4e73f" points="212 156.1 211.3 140 241.1 131.4 240.1 59.5 271.7 51.6 273.6 146.5 241.7 154.7 240.6 148.8 212 156.1"/><polygon class="uuid-5a108a2e-9a6a-4dd3-8eb3-fc2371f4e73f" points="149 208.8 148.4 171.2 179.9 163.8 180.9 177.7 276.6 154.2 276.7 177 149 208.8"/><polygon class="uuid-5a108a2e-9a6a-4dd3-8eb3-fc2371f4e73f" points="390.2 148.9 389.8 127.4 296.6 150.5 296.6 128.7 420.2 98.1 421.1 141.2 390.2 148.9"/><path class="uuid-5a108a2e-9a6a-4dd3-8eb3-fc2371f4e73f" d="M211.3,111.6c-12.8,6-55.4,20.5-65.5,5.9-6.5-9.3-3.6-21.7,4-29.3,5.4-5.4,11.5-9.2,18.9-11l36.4-8.8c8.2-2,21,.4,23,12.8,2,12.5-4.8,24.9-16.7,30.5l-.1-.1ZM197.8,98.3c1.5-.5,3.2-3.3,3.7-4.7s-1.3-5.2-2.8-5.2c-6.3.3-32.3,3.8-29,13.2,2.1,5.9,22.5-1.5,28-3.3h.1Z"/><path class="uuid-5a108a2e-9a6a-4dd3-8eb3-fc2371f4e73f" d="M316.3,96l32.9-10,.4,18.3-60.7,19.2-1.3-46.5,58.6-15,.2,18-30.5,8.2c0,2.5,0,4.5.4,7.8h0Z"/><polygon class="uuid-5a108a2e-9a6a-4dd3-8eb3-fc2371f4e73f" points="167.7 163.3 167.1 148.6 139.5 156.3 139.1 135.9 234.4 110.3 235 128.8 199.6 139.3 199.5 156.2 167.7 163.3"/><polygon class="uuid-5a108a2e-9a6a-4dd3-8eb3-fc2371f4e73f" points="475.5 81.5 474.1 35.7 433.2 46 433.1 26.2 496.8 10.4 498.3 75.7 475.5 81.5"/><polygon class="uuid-5a108a2e-9a6a-4dd3-8eb3-fc2371f4e73f" points="347.5 55.5 287.4 70.6 287.3 51.2 347.3 36.4 347.5 55.5"/></g></svg>